# xmcd
#
# Track frame offsets:
#	150
#	15865
#	41078
#	56793
#
# Disc length: 1093 seconds
#
# Revision: 0
# Processed by: cddbd v1.5.2PL0 Copyright (c) Steve Scherf et al.
# Submitted via: audiograbber 1.83.01
#
DISCID=29044304
DTITLE=R. Kelly - Karaoke
DYEAR=1992
DGENRE=Karaoke
TTITLE0=Ignition (Karaoke Version)
TTITLE1=I Believe I Can Fly (Karaoke Version)
TTITLE2=Ignition (Vocal)
TTITLE3=I Believe I Can Fly (Vocal Version)
EXTD=YEAR: 1992
EXTT0=
EXTT1=
EXTT2=
EXTT3=
PLAYORDER=
